#!OML:ASF E:\Mandelcareful walks\Project 1\Capture day 1\Session 1\Subject1.ASF
:FULLY-SPECIFIED
:DEGREES
1
root -21.9379 16.5673 -1.26643 177.948 81.7884 173.694
lowerback -11.3697 -2.54028 -5.16818
upperback 2.614 -2.65874 0.350302
thorax 9.47527 -1.58405 2.76974
lowerneck -23.5275 -2.28763 -5.27322
upperneck 26.1515 -1.84382 2.66092
head 12.708 -0.898945 1.60384
rclavicle -1.19271e-015 8.44835e-015
rhumerus -22.9575 -11.2827 -84.5361
rradius 20.0483
rwrist -15.3786
rhand 14.4537 -35.5131
rfingers 7.12502
rthumb 39.3372 -60.9357
lclavicle -1.19271e-015 8.44835e-015
lhumerus -30.2996 -7.49938 94.5518
lradius 28.6597
lwrist 5.12991
lhand -18.9315 -5.50142
lfingers 7.12502
lthumb 7.37123 24.3502
rfemur -5.71649 3.5979 15.7373
rtibia 22.2703
rfoot -27.644 -25.5717
rtoes 12.3262
lfemur -6.54401 -4.84763 -16.8144
ltibia 24.3055
lfoot -24.6273 15.322
ltoes 4.36356
2
root -21.9585 16.5649 -1.28227 176.059 81.6257 171.98
lowerback -10.8852 -2.51824 -5.19639
upperback 2.63944 -2.63975 0.212241
thorax 9.21302 -1.56746 2.65723
lowerneck -23.5747 -2.29387 -5.23389
upperneck 26.0209 -1.86357 2.64207
head 12.665 -0.907006 1.58439
rclavicle 7.97623e-015 -1.39149e-015
rhumerus -23.4913 -8.79325 -85.6971
rradius 20.6499
rwrist -14.3617
rhand 10.8855 -33.3623
rfingers 7.12502
rthumb 35.9657 -59.6872
lclavicle 7.97623e-015 -1.39149e-015
lhumerus -30.1941 -7.54509 94.5434
lradius 28.5335
lwrist 4.93777
lhand -18.594 -6.49462
lfingers 7.12502
lthumb 7.69699 23.3453
rfemur -5.63247 2.45214 15.2591
rtibia 22.387
rfoot -27.034 -24.7391
rtoes 11.7599
lfemur -6.3825 -5.03916 -17.1893
ltibia 24.2647
lfoot -24.5224 15.3868
ltoes 4.55317
3
root -21.9789 16.5645 -1.29803 174.252 81.4644 170.349
lowerback -10.4019 -2.53093 -5.25732
upperback 2.66841 -2.6675 0.119754
thorax 8.96424 -1.57719 2.60343
lowerneck -23.6566 -2.27081 -5.22289
upperneck 25.9322 -1.81697 2.58816
head 12.6427 -0.893473 1.56839
rclavicle 1.3418e-015 3.67752e-015
rhumerus -23.9878 -6.41193 -86.8061
rradius 21.2111
rwrist -13.0584
rhand 7.18293 -31.9116
rfingers 7.12502
rthumb 32.4498 -59.0263
lclavicle 1.3418e-015 3.67752e-015
lhumerus -30.1381 -7.58727 94.61
lradius 28.5431
lwrist 4.96885
lhand -18.6244 -6.68642
lfingers 7.12502
lthumb 7.66767 23.1546
rfemur -5.57264 1.22317 14.7777
rtibia 22.5521
rfoot -26.5407 -23.8204
rtoes 11.1952
lfemur -6.19271 -5.21222 -17.5612
ltibia 24.1733
lfoot -24.3976 15.4591
ltoes 4.73318
4
root -21.9949 16.5641 -1.31505 172.375 81.2614 168.627
lowerback -9.98626 -2.58627 -5.33166
upperback 2.69011 -2.74776 0.0308562
thorax 8.75283 -1.61358 2.5499
lowerneck -23.7547 -2.23852 -5.26153
upperneck 25.9353 -1.73719 2.54183
head 12.6599 -0.868908 1.57078
rclavicle -4.18317e-014 -3.18055e-015
rhumerus -24.4824 -4.16501 -87.8958
rradius 21.7287
rwrist -11.4118
rhand 3.37884 -31.0276
rfingers 7.12502
rthumb 28.8225 -58.8217
lclavicle -4.18317e-014 -3.18055e-015
lhumerus -30.08 -7.47367 94.6577
lradius 28.5262
lwrist 4.9853
lhand -18.662 -6.66038
lfingers 7.12502
lthumb 7.63144 23.1819
rfemur -5.48547 -0.00236205 14.2581
rtibia 22.6909
rfoot -26.1559 -22.8711
rtoes 10.6079
lfemur -6.00329 -5.30284 -17.9716
ltibia 24.0338
lfoot -24.2184 15.5034
ltoes 4.70661
5
root -22.0018 16.5588 -1.33475 170.683 81.3497 167.092
lowerback -9.7391 -2.52055 -5.24971
upperback 2.73495 -2.67286 -0.0972292
thorax 8.63972 -1.56738 2.38916
lowerneck -23.8513 -2.21725 -5.23747
upperneck 25.9585 -1.71254 2.54442
head 12.6869 -0.85532 1.57215
rclavicle 1.922e-014 4.37326e-015
rhumerus -25.0919 -1.80548 -89.1634
rradius 22.3249
rwrist -9.43223
rhand -0.895183 -30.7936
rfingers 7.12502
rthumb 24.7327 -59.2148
lclavicle 1.922e-014 4.37326e-015
lhumerus -30.0022 -7.40735 94.6319
lradius 28.4392
lwrist 4.95069
lhand -18.5624 -6.80956
lfingers 7.12502
lthumb 7.72749 23.0292
rfemur -5.45676 -1.45415 13.7622
rtibia 22.824
rfoot -25.404 -21.6199
rtoes 9.38523
lfemur -5.67001 -5.24325 -18.318
ltibia 23.8696
lfoot -24.3919 15.5069
ltoes 5.04601
6
root -22.0921 16.58 -1.35721 166.597 82.6849 163.089
lowerback -8.46343 -1.95614 -4.96886
upperback 2.57086 -2.01908 -0.278224
thorax 7.64495 -1.20912 2.1956
lowerneck -24.0104 -2.1877 -5.1279
upperneck 25.9274 -1.69548 2.50473
head 12.7033 -0.842667 1.54054
rclavicle -3.39549e-014 -6.36111e-015
rhumerus -26.2885 2.24679 -91.4754
rradius 23.5606
rwrist -5.56714
rhand -8.5501 -32.6699
rfingers 7.12502
rthumb 17.3795 -61.9129
lclavicle -3.39549e-014 -6.36111e-015
lhumerus -23.9217 -2.19924 93.1822
lradius 17.8622
lwrist -0.324478
lhand -19.7345 -11.5843
lfingers 7.12502
lthumb 6.5961 18.293
rfemur -6.18288 -1.75264 13.2517
rtibia 22.9237
rfoot -24.0493 -20.4078
rtoes 8.55569
lfemur -5.68133 -5.21095 -18.8755
ltibia 23.7079
lfoot -24.3062 17.2391
ltoes 4.30066
7
root -22.1342 16.5858 -1.38934 163.053 83.4292 159.732
lowerback -7.61847 -1.62468 -4.5745
upperback 2.45867 -1.65732 -0.459473
thorax 6.98786 -0.995888 1.86191
lowerneck -23.9864 -2.12142 -5.06167
upperneck 25.8782 -1.6284 2.50353
head 12.6746 -0.806583 1.54034
rclavicle -7.83957e-015 2.98177e-015
rhumerus -26.358 2.27112 -91.4945
rradius 23.5842
rwrist -5.54967
rhand -8.23808 -32.7829
rfingers 7.12502
rthumb 17.6797 -61.9992
lclavicle -7.83957e-015 2.98177e-015
lhumerus -24.6993 -3.14637 93.4127
lradius 19.14
lwrist 0.68273
lhand -19.6856 -10.9158
lfingers 7.12502
lthumb 6.6433 18.96
rfemur -6.40774 -3.11898 12.7268
rtibia 22.9662
rfoot -22.7533 -18.6285
rtoes 7.98716
lfemur -5.46832 -5.10613 -19.3016
ltibia 23.5929
lfoot -24.1774 18.2248
ltoes 3.82232
8
root -22.1457 16.5902 -1.39205 161.873 83.3715 158.569
lowerback -7.30119 -1.65923 -4.70097
upperback 2.38159 -1.70716 -0.504838
thorax 6.72981 -1.01865 1.88756
lowerneck -23.8455 -2.0402 -5.03775
upperneck 25.7265 -1.54521 2.5497
head 12.5818 -0.76125 1.56714
rclavicle 2.13072e-014 -1.41137e-014
rhumerus -26.425 2.39097 -91.5668
rradius 23.6201
rwrist -5.56779
rhand -8.22665 -32.7413
rfingers 7.12502
rthumb 17.6908 -61.9565
lclavicle 2.13072e-014 -1.41137e-014
lhumerus -24.3869 -2.76474 93.2736
lradius 18.4285
lwrist 0.357146
lhand -19.7137 -11.3139
lfingers 7.12502
lthumb 6.61617 18.5628
rfemur -6.42781 -3.33088 12.5273
rtibia 22.9665
rfoot -22.5808 -18.4211
rtoes 8.44545
lfemur -5.52764 -5.17627 -19.4691
ltibia 23.5105
lfoot -23.7516 18.4885
ltoes 3.60415
9
root -22.1447 16.5914 -1.39179 161.756 83.3426 158.574
lowerback -7.11547 -1.67208 -4.73856
upperback 2.39782 -1.73042 -0.506118
thorax 6.64335 -1.03024 1.90859
lowerneck -23.784 -2.00054 -4.87468
upperneck 25.6648 -1.49916 2.367
head 12.5397 -0.750108 1.47689
rclavicle -1.95554e-014 -1.42131e-014
rhumerus -26.4142 2.35831 -91.5903
rradius 23.5612
rwrist -5.48883
rhand -8.22008 -32.7176
rfingers 7.12502
rthumb 17.6971 -61.9323
lclavicle -1.95554e-014 -1.42131e-014
lhumerus -24.8559 -3.07887 93.3324
lradius 19.2055
lwrist 0.634446
lhand -19.4833 -11.0693
lfingers 7.12502
lthumb 6.83858 18.8002
rfemur -6.28433 -3.2499 12.5189
rtibia 22.9819
rfoot -22.6693 -18.4542
rtoes 8.7041
lfemur -5.51911 -5.33364 -19.4745
ltibia 23.4821
lfoot -23.324 18.848
ltoes 3.34671
10
root -22.1383 16.5901 -1.38986 161.69 83.3957 158.631
lowerback -7.05917 -1.66736 -4.77512
upperback 2.44796 -1.72455 -0.470913
thorax 6.66644 -1.03099 1.96726
lowerneck -23.9037 -1.96523 -4.67141
upperneck 25.7912 -1.43023 2.0777
head 12.6069 -0.739411 1.34492
rclavicle 1.72943e-014 8.74653e-015
rhumerus -26.3853 2.17307 -91.5028
rradius 23.3468
rwrist -5.16061
rhand -8.26499 -32.1954
rfingers 7.12502
rthumb 17.6538 -61.4139
lclavicle 1.72943e-014 8.74653e-015
lhumerus -24.4591 -2.95732 93.3255
lradius 18.4488
lwrist 0.512483
lhand -19.6225 -11.3032
lfingers 7.12502
lthumb 6.70427 18.5706
rfemur -6.15267 -3.1281 12.5621
rtibia 22.993
rfoot -22.6358 -18.5739
rtoes 8.36978
lfemur -5.35731 -5.22526 -19.4509
ltibia 23.4752
lfoot -23.4172 18.78
ltoes 3.78476
11
root -22.1366 16.5893 -1.39038 161.237 83.4552 158.18
lowerback -7.02907 -1.6665 -4.82232
upperback 2.42076 -1.72317 -0.447372
thorax 6.62261 -1.03169 2.01982
lowerneck -23.9717 -1.94925 -4.7065
upperneck 25.9462 -1.38525 2.07318
head 12.6813 -0.723292 1.35876
rclavicle -2.18166e-014 5.96354e-016
rhumerus -26.4308 1.93045 -91.3586
rradius 23.0406
rwrist -4.71309
rhand -8.58348 -30.8642
rfingers 7.12502
rthumb 17.3473 -60.1101
lclavicle -2.18166e-014 5.96354e-016
lhumerus -24.7896 -3.0272 93.3983
lradius 18.9526
lwrist 0.644334
lhand -19.593 -10.891
lfingers 7.12502
lthumb 6.73268 18.982
rfemur -6.16579 -3.2255 12.5223
rtibia 22.9921
rfoot -22.4748 -18.5334
rtoes 7.85395
lfemur -5.21043 -4.99701 -19.499
ltibia 23.4832
lfoot -23.9133 18.3768
ltoes 4.46435
12
root -22.1395 16.5896 -1.39351 160.464 83.4184 157.408
lowerback -6.89684 -1.66335 -4.87579
upperback 2.36216 -1.72146 -0.474646
thorax 6.48531 -1.02877 2.02582
lowerneck -23.8725 -1.96664 -4.8172
upperneck 25.9474 -1.4062 2.18848
head 12.6649 -0.727236 1.41843
rclavicle 2.71714e-014 1.37161e-014
rhumerus -26.5067 1.74315 -91.2922
rradius 22.913
rwrist -4.50889
rhand -8.83718 -30.1144
rfingers 7.12502
rthumb 17.1032 -59.3816
lclavicle 2.71714e-014 1.37161e-014
lhumerus -25.0177 -3.17559 93.4732
lradius 19.217
lwrist 0.834075
lhand -19.5253 -10.4384
lfingers 7.12502
lthumb 6.79805 19.4325
rfemur -6.16328 -3.40546 12.3825
rtibia 23.0086
rfoot -22.509 -18.3409
rtoes 7.93402
lfemur -5.21395 -5.14933 -19.634
ltibia 23.4819
lfoot -23.9783 18.4796
ltoes 4.39974
13
root -22.1411 16.5896 -1.39398 159.719 83.4012 156.69
lowerback -6.78631 -1.63683 -4.95061
upperback 2.35061 -1.68375 -0.50162
thorax 6.40864 -1.01077 2.0473
lowerneck -23.7802 -1.98998 -4.83522
upperneck 25.8583 -1.45201 2.23211
head 12.6132 -0.743234 1.42927
rclavicle -3.516e-014 2.28602e-015
rhumerus -26.5144 1.60479 -91.2636
rradius 22.9065
rwrist -4.44647
rhand -8.81068 -30.1906
rfingers 7.12502
rthumb 17.1287 -59.4556
lclavicle -3.516e-014 2.28602e-015
lhumerus -25.0287 -3.2335 93.5044
lradius 19.1997
lwrist 0.902293
lhand -19.3289 -10.0347
lfingers 7.12502
lthumb 6.98764 19.83
rfemur -6.14316 -3.46362 12.272
rtibia 23.0172
rfoot -22.568 -18.2131
rtoes 8.01817
lfemur -5.23274 -5.35794 -19.733
ltibia 23.4864
lfoot -23.8174 18.7554
ltoes 4.47591
